<svg width="17" height="16" viewBox="0 0 17 16" fill="none" xmlns="http://www.w3.org/2000/svg">
<path d="M7.95305 0.25C8.09306 0.24991 8.2303 0.289014 8.34924 0.362887C8.46818 0.43676 8.56407 0.542452 8.62605 0.668L10.508 4.483L14.718 5.095C14.8565 5.11511 14.9866 5.17355 15.0936 5.26372C15.2006 5.35388 15.2802 5.47218 15.3235 5.60523C15.3667 5.73829 15.3719 5.8808 15.3385 6.01665C15.305 6.1525 15.2342 6.27628 15.134 6.374L12.088 9.344L12.807 13.536C12.8304 13.6738 12.8147 13.8154 12.7619 13.9449C12.7091 14.0743 12.6213 14.1865 12.5082 14.2687C12.3951 14.3509 12.2613 14.3999 12.1219 14.4102C11.9825 14.4205 11.843 14.3917 11.719 14.327L7.95305 12.347L4.18705 14.327C4.06323 14.392 3.92371 14.4211 3.78424 14.411C3.64476 14.4009 3.51088 14.352 3.39773 14.2699C3.28457 14.1877 3.19664 14.0755 3.14386 13.946C3.09108 13.8165 3.07556 13.6749 3.09905 13.537L3.81905 9.343L0.771045 6.374C0.670612 6.27632 0.599545 6.15247 0.565897 6.01647C0.53225 5.88047 0.537367 5.73777 0.58067 5.60453C0.623972 5.47129 0.703729 5.35284 0.810901 5.26261C0.918073 5.17238 1.04838 5.11397 1.18705 5.094L5.39705 4.483L7.28005 0.668C7.34202 0.542452 7.43791 0.43676 7.55685 0.362887C7.67579 0.289014 7.81303 0.24991 7.95305 0.25ZM7.95305 2.695L6.56805 5.5C6.51426 5.6089 6.43483 5.70311 6.33659 5.77453C6.23835 5.84595 6.12423 5.89244 6.00405 5.91L2.90705 6.36L5.14705 8.544C5.2342 8.62886 5.2994 8.73365 5.33703 8.84933C5.37466 8.96501 5.38359 9.0881 5.36305 9.208L4.83505 12.292L7.60405 10.836C7.71168 10.7794 7.83145 10.7499 7.95305 10.7499C8.07464 10.7499 8.19442 10.7794 8.30205 10.836L11.072 12.292L10.542 9.208C10.5215 9.0881 10.5304 8.96501 10.5681 8.84933C10.6057 8.73365 10.6709 8.62886 10.758 8.544L12.998 6.361L9.90205 5.911C9.78186 5.89344 9.66774 5.84695 9.5695 5.77553C9.47126 5.70411 9.39183 5.6099 9.33805 5.501L7.95305 2.695Z" fill="#8B949E"/>
</svg>
