<svg width="16" height="16" viewBox="0 0 17 16" fill="none" xmlns="http://www.w3.org/2000/svg">
<path d="M9.86238 0.391999L15.1124 3.437C15.6524 3.751 15.9844 4.327 15.9844 4.951V11.049C15.9844 11.3556 15.9039 11.6569 15.7508 11.9226C15.5978 12.1883 15.3776 12.4092 15.1124 12.563L9.86238 15.608C9.59563 15.7627 9.29274 15.8442 8.98438 15.8442C8.67601 15.8442 8.37312 15.7627 8.10638 15.608L2.85637 12.563C2.59113 12.4092 2.37096 12.1883 2.21792 11.9226C2.06488 11.6569 1.98434 11.3556 1.98438 11.049V4.951C1.98438 4.327 2.31637 3.75 2.85637 3.437L8.10638 0.391999C8.37312 0.237288 8.67601 0.155807 8.98438 0.155807C9.29274 0.155807 9.59563 0.237288 9.86238 0.391999ZM8.85938 1.69L4.22937 4.375L8.98438 7.133L13.7394 4.375L9.10938 1.69C9.07144 1.66786 9.0283 1.65619 8.98438 1.65619C8.94045 1.65619 8.89731 1.66786 8.85938 1.69ZM3.48438 5.677V11.049C3.48438 11.139 3.53138 11.22 3.60938 11.265L8.23438 13.948V8.432L3.48438 5.677ZM9.73438 13.948L14.3594 11.265C14.3973 11.2431 14.4288 11.2116 14.4508 11.1737C14.4727 11.1358 14.4843 11.0928 14.4844 11.049V5.677L9.73438 8.432V13.948Z" fill="#8B949E"/>
</svg>
