<svg width="17" height="16" viewBox="0 0 17 16" fill="none" xmlns="http://www.w3.org/2000/svg">
<path d="M0.546875 1.75C0.546875 0.784 1.33087 0 2.29688 0H14.7969C15.7629 0 16.5469 0.784 16.5469 1.75V14.25C16.5469 14.7141 16.3625 15.1592 16.0343 15.4874C15.7061 15.8156 15.261 16 14.7969 16H2.29688C1.83275 16 1.38763 15.8156 1.05944 15.4874C0.731249 15.1592 0.546875 14.7141 0.546875 14.25V1.75ZM7.04688 6.5V14.5H14.7969C14.8632 14.5 14.9268 14.4737 14.9737 14.4268C15.0205 14.3799 15.0469 14.3163 15.0469 14.25V6.5H7.04688ZM15.0469 5V1.75C15.0469 1.6837 15.0205 1.62011 14.9737 1.57322C14.9268 1.52634 14.8632 1.5 14.7969 1.5H7.04688V5H15.0469ZM2.04688 6.5V14.25C2.04688 14.388 2.15887 14.5 2.29688 14.5H5.54688V6.5H2.04688ZM5.54688 5V1.5H2.29688C2.23057 1.5 2.16698 1.52634 2.1201 1.57322C2.07321 1.62011 2.04688 1.6837 2.04688 1.75V5H5.54688Z" fill="#8B949E"/>
</svg>
