<svg width="230" height="41" viewBox="0 0 230 41" fill="none" xmlns="http://www.w3.org/2000/svg">
<path d="M14.4966 6.4034H12.8896C12.77 5.80507 12.5534 5.25234 12.24 4.74518C11.9323 4.23233 11.5448 3.78501 11.0776 3.40323C10.6103 3.02144 10.0804 2.72512 9.48773 2.51428C8.8951 2.30345 8.25404 2.19803 7.56454 2.19803C6.45906 2.19803 5.45046 2.48579 4.53872 3.06133C3.63269 3.63686 2.90615 4.48306 2.35911 5.59993C1.81777 6.71111 1.5471 8.07301 1.5471 9.68564C1.5471 11.3097 1.81777 12.6773 2.35911 13.7884C2.90615 14.8996 3.63269 15.743 4.53872 16.3185C5.45046 16.8883 6.45906 17.1733 7.56454 17.1733C8.25404 17.1733 8.8951 17.0678 9.48773 16.857C10.0804 16.6462 10.6103 16.3527 11.0776 15.9766C11.5448 15.5948 11.9323 15.1475 12.24 14.6346C12.5534 14.1218 12.77 13.5662 12.8896 12.9679H14.4966C14.3541 13.7713 14.0863 14.5207 13.6931 15.2159C13.3056 15.9054 12.8099 16.5094 12.2058 17.0279C11.6075 17.5465 10.918 17.9511 10.1373 18.2417C9.35667 18.5323 8.49907 18.6776 7.56454 18.6776C6.09437 18.6776 4.78945 18.3101 3.64978 17.575C2.51012 16.8342 1.61548 15.7914 0.965868 14.4466C0.321956 13.1018 0 11.5148 0 9.68564C0 7.85647 0.321956 6.26949 0.965868 4.92468C1.61548 3.57987 2.51012 2.53993 3.64978 1.80484C4.78945 1.06406 6.09437 0.693667 7.56454 0.693667C8.49907 0.693667 9.35667 0.838975 10.1373 1.12959C10.918 1.41451 11.6075 1.81909 12.2058 2.34334C12.8099 2.86188 13.3056 3.46591 13.6931 4.15541C14.0863 4.84491 14.3541 5.59424 14.4966 6.4034Z" fill="white"/>
<path d="M22.3156 18.7118C21.1816 18.7118 20.1787 18.424 19.3068 17.8485C18.4407 17.273 17.7626 16.4781 17.2725 15.4638C16.7825 14.4438 16.5375 13.267 16.5375 11.9336C16.5375 10.5888 16.7825 9.40642 17.2725 8.38642C17.7626 7.36072 18.4407 6.56295 19.3068 5.99312C20.1787 5.41759 21.1816 5.12982 22.3156 5.12982C23.4495 5.12982 24.4496 5.41759 25.3157 5.99312C26.1819 6.56865 26.86 7.36642 27.35 8.38642C27.8458 9.40642 28.0937 10.5888 28.0937 11.9336C28.0937 13.267 27.8486 14.4438 27.3586 15.4638C26.8685 16.4781 26.1876 17.273 25.3157 17.8485C24.4496 18.424 23.4495 18.7118 22.3156 18.7118ZM22.3156 17.3186C23.2273 17.3186 23.9994 17.0735 24.6319 16.5835C25.2645 16.0934 25.7431 15.441 26.0679 14.6261C26.3984 13.8112 26.5637 12.9137 26.5637 11.9336C26.5637 10.9535 26.3984 10.0532 26.0679 9.23262C25.7431 8.41206 25.2645 7.7539 24.6319 7.25815C23.9994 6.76239 23.2273 6.51452 22.3156 6.51452C21.4095 6.51452 20.6374 6.76239 19.9992 7.25815C19.3667 7.7539 18.8852 8.41206 18.5547 9.23262C18.2299 10.0532 18.0675 10.9535 18.0675 11.9336C18.0675 12.9137 18.2299 13.8112 18.5547 14.6261C18.8852 15.441 19.3667 16.0934 19.9992 16.5835C20.6317 17.0735 21.4038 17.3186 22.3156 17.3186Z" fill="white"/>
<path d="M30.7115 18.4383V5.30932H32.1902V7.32653H32.327C32.5891 6.64843 33.025 6.11563 33.6348 5.72815C34.2502 5.33496 34.9881 5.13837 35.8486 5.13837C36.7546 5.13837 37.4982 5.35206 38.0795 5.77943C38.6664 6.20111 39.1052 6.78234 39.3958 7.52312H39.5069C39.8032 6.79374 40.2847 6.21535 40.9514 5.78798C41.6238 5.35491 42.4387 5.13837 43.396 5.13837C44.6155 5.13837 45.5785 5.52301 46.2851 6.29228C46.9917 7.05586 47.345 8.17273 47.345 9.6429V18.4383H45.8235V9.6429C45.8235 8.60581 45.5585 7.82798 45.0286 7.30943C44.4986 6.79089 43.8006 6.53161 42.9344 6.53161C41.9315 6.53161 41.1594 6.83932 40.6181 7.45474C40.0767 8.07016 39.8061 8.85083 39.8061 9.79676V18.4383H38.2504V9.50614C38.2504 8.6172 38.0025 7.89921 37.5068 7.35217C37.011 6.80513 36.313 6.53161 35.4126 6.53161C34.8086 6.53161 34.2644 6.67977 33.7801 6.97608C33.3014 7.2724 32.9225 7.68552 32.6433 8.21547C32.3697 8.73972 32.233 9.34374 32.233 10.0275V18.4383H30.7115Z" fill="white"/>
<path d="M50.6509 23.3616V5.30932H52.1296V7.81374H52.3091C52.4914 7.42055 52.7422 7.01882 53.0613 6.60854C53.3804 6.19256 53.8021 5.84211 54.3263 5.5572C54.8562 5.27228 55.523 5.12982 56.3264 5.12982C57.4091 5.12982 58.355 5.41474 59.1642 5.98457C59.979 6.54871 60.6116 7.34078 61.0617 8.36078C61.5176 9.37508 61.7455 10.5575 61.7455 11.908C61.7455 13.2642 61.5176 14.4523 61.0617 15.4723C60.6116 16.4923 59.979 17.2872 59.1642 17.8571C58.355 18.4269 57.4148 18.7118 56.3435 18.7118C55.5514 18.7118 54.8876 18.5693 54.3519 18.2844C53.822 17.9995 53.3918 17.6491 53.0613 17.2331C52.7365 16.8114 52.4857 16.4011 52.3091 16.0022H52.1723V23.3616H50.6509ZM52.1552 11.8823C52.1552 12.9422 52.3119 13.8825 52.6253 14.703C52.9445 15.5179 53.4003 16.1589 53.993 16.6262C54.5913 17.0878 55.315 17.3186 56.164 17.3186C57.0359 17.3186 57.7709 17.0792 58.3693 16.6006C58.9733 16.1162 59.432 15.4638 59.7454 14.6432C60.0645 13.8226 60.2241 12.9023 60.2241 11.8823C60.2241 10.8737 60.0674 9.96486 59.754 9.1557C59.4463 8.34653 58.9904 7.70547 58.3864 7.23251C57.7823 6.75385 57.0416 6.51452 56.164 6.51452C55.3093 6.51452 54.5827 6.7453 53.9844 7.20686C53.3861 7.66273 52.9302 8.29525 52.6168 9.10441C52.3091 9.90788 52.1552 10.8339 52.1552 11.8823Z" fill="white"/>
<path d="M72.7036 13.4209V5.30932H74.2251V18.4383H72.7036V16.2587H72.5839C72.2762 16.9311 71.789 17.4924 71.1223 17.9425C70.4556 18.387 69.6407 18.6092 68.6777 18.6092C67.8401 18.6092 67.0964 18.4269 66.4468 18.0622C65.7972 17.6918 65.2872 17.1505 64.9168 16.4382C64.5464 15.7259 64.3612 14.8512 64.3612 13.8141V5.30932H65.8827V13.7201C65.8827 14.7458 66.1847 15.572 66.7887 16.1988C67.3928 16.82 68.1677 17.1305 69.1136 17.1305C69.7063 17.1305 70.2761 16.9881 70.8232 16.7031C71.3702 16.4182 71.8204 16.0022 72.1737 15.4552C72.527 14.9025 72.7036 14.2244 72.7036 13.4209Z" fill="white"/>
<path d="M82.7022 5.30932V6.63418H76.4369V5.30932H82.7022ZM78.3943 2.16384H79.9243V15.0107C79.9243 15.5578 80.0183 15.988 80.2063 16.3014C80.3944 16.6091 80.6394 16.8285 80.9414 16.9596C81.2434 17.0849 81.5654 17.1476 81.9073 17.1476C82.1067 17.1476 82.2777 17.1362 82.4201 17.1134C82.5626 17.0849 82.688 17.0564 82.7962 17.0279L83.121 18.4041C82.9729 18.4611 82.7905 18.5124 82.574 18.5579C82.3575 18.6092 82.0896 18.6349 81.7705 18.6349C81.2121 18.6349 80.6736 18.5124 80.1551 18.2673C79.6422 18.0223 79.2205 17.6576 78.89 17.1733C78.5595 16.6889 78.3943 16.0877 78.3943 15.3697V2.16384Z" fill="white"/>
<path d="M90.6024 18.7118C89.3773 18.7118 88.3174 18.4269 87.4227 17.8571C86.5281 17.2815 85.8358 16.4866 85.3457 15.4723C84.8613 14.4523 84.6192 13.2784 84.6192 11.9507C84.6192 10.6287 84.8613 9.45486 85.3457 8.42916C85.8358 7.39776 86.511 6.59144 87.3715 6.01021C88.2376 5.42329 89.2377 5.12982 90.3716 5.12982C91.0839 5.12982 91.7706 5.26088 92.4316 5.52301C93.0926 5.77943 93.6852 6.17547 94.2095 6.71111C94.7394 7.24105 95.1582 7.91061 95.4659 8.71977C95.7736 9.52324 95.9275 10.4749 95.9275 11.5746V12.3268H85.6705V10.9849H94.3719C94.3719 10.1415 94.2009 9.38363 93.859 8.71122C93.5228 8.03312 93.0527 7.49748 92.4487 7.10429C91.8503 6.71111 91.158 6.51452 90.3716 6.51452C89.5397 6.51452 88.8074 6.73675 88.1749 7.18122C87.5424 7.62569 87.0466 8.21262 86.6877 8.94201C86.3344 9.67139 86.1549 10.4692 86.1492 11.3353V12.1388C86.1492 13.1816 86.3287 14.0933 86.6877 14.874C87.0523 15.6489 87.568 16.2501 88.2347 16.6775C88.9015 17.1049 89.6907 17.3186 90.6024 17.3186C91.2235 17.3186 91.7677 17.2217 92.235 17.0279C92.7079 16.8342 93.104 16.5749 93.4231 16.2501C93.7479 15.9196 93.9929 15.5578 94.1582 15.1646L95.6027 15.6347C95.4033 16.1874 95.0756 16.6974 94.6197 17.1647C94.1696 17.632 93.6054 18.0081 92.9273 18.293C92.2549 18.5722 91.48 18.7118 90.6024 18.7118Z" fill="white"/>
<path d="M98.5582 18.4383V5.30932H100.037V7.32653H100.148C100.41 6.66552 100.866 6.13273 101.516 5.72815C102.171 5.31787 102.912 5.11273 103.738 5.11273C103.863 5.11273 104.003 5.11558 104.157 5.12127C104.311 5.12697 104.439 5.13267 104.541 5.13837V6.68547C104.473 6.67407 104.353 6.65697 104.182 6.63418C104.011 6.61139 103.826 6.59999 103.627 6.59999C102.943 6.59999 102.333 6.7453 101.798 7.03591C101.268 7.32083 100.849 7.71687 100.541 8.22402C100.233 8.73117 100.08 9.30955 100.08 9.95916V18.4383H98.5582Z" fill="white"/>
<path d="M122.284 5.30932C122.187 4.3349 121.757 3.55993 120.994 2.9844C120.23 2.40887 119.27 2.1211 118.113 2.1211C117.298 2.1211 116.58 2.26071 115.959 2.53993C115.344 2.81915 114.859 3.20663 114.506 3.70239C114.158 4.19245 113.985 4.75088 113.985 5.3777C113.985 5.83926 114.084 6.24385 114.284 6.59144C114.483 6.93904 114.751 7.2382 115.087 7.48893C115.429 7.73396 115.805 7.9448 116.216 8.12145C116.631 8.2981 117.05 8.44625 117.472 8.56592L119.318 9.09586C119.877 9.24972 120.435 9.44631 120.994 9.68564C121.552 9.92497 122.062 10.227 122.524 10.5917C122.991 10.9507 123.364 11.3923 123.643 11.9165C123.928 12.4351 124.071 13.0591 124.071 13.7884C124.071 14.723 123.828 15.5635 123.344 16.31C122.86 17.0564 122.165 17.6491 121.259 18.0878C120.353 18.5209 119.267 18.7374 118.002 18.7374C116.811 18.7374 115.777 18.5409 114.899 18.1477C114.022 17.7488 113.332 17.1989 112.831 16.498C112.329 15.7971 112.047 14.9851 111.984 14.062H113.626C113.683 14.7515 113.911 15.3355 114.309 15.8142C114.708 16.2929 115.227 16.6576 115.865 16.9083C116.503 17.1533 117.216 17.2758 118.002 17.2758C118.874 17.2758 119.649 17.1305 120.327 16.8399C121.011 16.5436 121.546 16.1333 121.934 15.6091C122.327 15.0791 122.524 14.4637 122.524 13.7628C122.524 13.1702 122.37 12.6744 122.062 12.2755C121.754 11.871 121.324 11.5319 120.771 11.2584C120.224 10.9849 119.589 10.7427 118.865 10.5318L116.771 9.91642C115.398 9.50614 114.332 8.93916 113.574 8.21547C112.816 7.49178 112.438 6.56865 112.438 5.44608C112.438 4.50585 112.688 3.67959 113.19 2.9673C113.697 2.24931 114.381 1.69088 115.241 1.29199C116.107 0.88741 117.079 0.68512 118.156 0.68512C119.244 0.68512 120.207 0.884562 121.045 1.28345C121.882 1.68233 122.546 2.23222 123.036 2.93311C123.532 3.62831 123.797 4.42038 123.831 5.30932H122.284Z" fill="white"/>
<path d="M131.982 18.7118C130.848 18.7118 129.845 18.424 128.973 17.8485C128.107 17.273 127.429 16.4781 126.939 15.4638C126.448 14.4438 126.203 13.267 126.203 11.9336C126.203 10.5888 126.448 9.40642 126.939 8.38642C127.429 7.36072 128.107 6.56295 128.973 5.99312C129.845 5.41759 130.848 5.12982 131.982 5.12982C133.116 5.12982 134.116 5.41759 134.982 5.99312C135.848 6.56865 136.526 7.36642 137.016 8.38642C137.512 9.40642 137.76 10.5888 137.76 11.9336C137.76 13.267 137.515 14.4438 137.025 15.4638C136.535 16.4781 135.854 17.273 134.982 17.8485C134.116 18.424 133.116 18.7118 131.982 18.7118ZM131.982 17.3186C132.893 17.3186 133.665 17.0735 134.298 16.5835C134.93 16.0934 135.409 15.441 135.734 14.6261C136.064 13.8112 136.23 12.9137 136.23 11.9336C136.23 10.9535 136.064 10.0532 135.734 9.23262C135.409 8.41206 134.93 7.7539 134.298 7.25815C133.665 6.76239 132.893 6.51452 131.982 6.51452C131.076 6.51452 130.303 6.76239 129.665 7.25815C129.033 7.7539 128.551 8.41206 128.221 9.23262C127.896 10.0532 127.733 10.9535 127.733 11.9336C127.733 12.9137 127.896 13.8112 128.221 14.6261C128.551 15.441 129.033 16.0934 129.665 16.5835C130.298 17.0735 131.07 17.3186 131.982 17.3186Z" fill="white"/>
<path d="M145.506 18.7118C144.332 18.7118 143.309 18.4183 142.437 17.8314C141.571 17.2445 140.899 16.441 140.42 15.421C139.942 14.401 139.702 13.2386 139.702 11.9336C139.702 10.6173 139.944 9.44631 140.429 8.42061C140.919 7.39491 141.597 6.59144 142.463 6.01021C143.329 5.42329 144.335 5.12982 145.48 5.12982C146.358 5.12982 147.153 5.30077 147.865 5.64267C148.577 5.97887 149.164 6.45468 149.626 7.0701C150.093 7.67983 150.387 8.39212 150.506 9.20698H148.968C148.808 8.4662 148.424 7.83368 147.814 7.30943C147.21 6.77949 146.441 6.51452 145.506 6.51452C144.668 6.51452 143.928 6.74245 143.284 7.19832C142.64 7.64849 142.135 8.27815 141.771 9.08731C141.412 9.89078 141.232 10.8225 141.232 11.8823C141.232 12.9479 141.409 13.891 141.762 14.7116C142.116 15.5264 142.611 16.1646 143.249 16.6262C143.893 17.0878 144.646 17.3186 145.506 17.3186C146.087 17.3186 146.617 17.2103 147.096 16.9938C147.58 16.7715 147.985 16.4581 148.31 16.0535C148.64 15.6489 148.862 15.1674 148.976 14.609H150.515C150.401 15.4011 150.119 16.1077 149.669 16.7288C149.224 17.3442 148.646 17.8286 147.933 18.1819C147.227 18.5352 146.418 18.7118 145.506 18.7118Z" fill="white"/>
<path d="M153.071 18.4383V5.30932H154.601V18.4383H153.071ZM153.849 3.05278C153.535 3.05278 153.267 2.94736 153.045 2.73652C152.823 2.51998 152.712 2.26071 152.712 1.9587C152.712 1.65669 152.823 1.40026 153.045 1.18942C153.267 0.972886 153.535 0.864617 153.849 0.864617C154.162 0.864617 154.43 0.972886 154.652 1.18942C154.874 1.40026 154.985 1.65669 154.985 1.9587C154.985 2.26071 154.874 2.51998 154.652 2.73652C154.43 2.94736 154.162 3.05278 153.849 3.05278Z" fill="white"/>
<path d="M163.21 18.7118C161.985 18.7118 160.925 18.4269 160.031 17.8571C159.136 17.2815 158.444 16.4866 157.954 15.4723C157.469 14.4523 157.227 13.2784 157.227 11.9507C157.227 10.6287 157.469 9.45486 157.954 8.42916C158.444 7.39776 159.119 6.59144 159.979 6.01021C160.846 5.42329 161.846 5.12982 162.98 5.12982C163.692 5.12982 164.379 5.26088 165.04 5.52301C165.701 5.77943 166.293 6.17547 166.817 6.71111C167.347 7.24105 167.766 7.91061 168.074 8.71977C168.382 9.52324 168.535 10.4749 168.535 11.5746V12.3268H158.278V10.9849H166.98C166.98 10.1415 166.809 9.38363 166.467 8.71122C166.131 8.03312 165.661 7.49748 165.057 7.10429C164.458 6.71111 163.766 6.51452 162.98 6.51452C162.148 6.51452 161.415 6.73675 160.783 7.18122C160.15 7.62569 159.655 8.21262 159.296 8.94201C158.942 9.67139 158.763 10.4692 158.757 11.3353V12.1388C158.757 13.1816 158.937 14.0933 159.296 14.874C159.66 15.6489 160.176 16.2501 160.843 16.6775C161.509 17.1049 162.299 17.3186 163.21 17.3186C163.831 17.3186 164.376 17.2217 164.843 17.0279C165.316 16.8342 165.712 16.5749 166.031 16.2501C166.356 15.9196 166.601 15.5578 166.766 15.1646L168.211 15.6347C168.011 16.1874 167.684 16.6974 167.228 17.1647C166.778 17.632 166.213 18.0081 165.535 18.293C164.863 18.5722 164.088 18.7118 163.21 18.7118Z" fill="white"/>
<path d="M176.337 5.30932V6.63418H170.072V5.30932H176.337ZM172.029 2.16384H173.559V15.0107C173.559 15.5578 173.653 15.988 173.842 16.3014C174.03 16.6091 174.275 16.8285 174.577 16.9596C174.879 17.0849 175.201 17.1476 175.542 17.1476C175.742 17.1476 175.913 17.1362 176.055 17.1134C176.198 17.0849 176.323 17.0564 176.431 17.0279L176.756 18.4041C176.608 18.4611 176.426 18.5124 176.209 18.5579C175.993 18.6092 175.725 18.6349 175.406 18.6349C174.847 18.6349 174.309 18.5124 173.79 18.2673C173.277 18.0223 172.856 17.6576 172.525 17.1733C172.195 16.6889 172.029 16.0877 172.029 15.3697V2.16384Z" fill="white"/>
<path d="M180.13 23.3616C179.828 23.3616 179.546 23.3332 179.284 23.2762C179.022 23.2192 178.814 23.1565 178.66 23.0881L179.071 21.7462C179.589 21.9057 180.051 21.9627 180.455 21.9171C180.86 21.8772 181.219 21.6949 181.532 21.3701C181.846 21.051 182.125 20.5609 182.37 19.8999L182.849 18.5665L178.019 5.30932H179.669L183.567 16.4296H183.686L187.584 5.30932H189.234L183.678 20.5153C183.444 21.1478 183.156 21.6749 182.814 22.0966C182.472 22.524 182.076 22.8402 181.626 23.0454C181.182 23.2562 180.683 23.3616 180.13 23.3616Z" fill="white"/>
<path d="M26.7727 28.1634L30.4196 38.4489H30.5222L34.1691 28.1634H35.286L31.0407 39.8336H29.9011L25.6558 28.1634H26.7727Z" fill="white"/>
<path d="M37.8703 28.1634V39.8336H36.8047V28.1634H37.8703Z" fill="white"/>
<path d="M39.785 29.1208V28.1634H48.2471V29.1208H44.5489V39.8336H43.4833V29.1208H39.785Z" fill="white"/>
<path d="M60.5329 31.081C60.4683 30.4314 60.1815 29.9147 59.6725 29.531C59.1634 29.1474 58.5233 28.9555 57.7521 28.9555C57.2089 28.9555 56.7302 29.0486 56.3162 29.2347C55.9059 29.4209 55.583 29.6792 55.3474 30.0097C55.1157 30.3364 54.9998 30.7087 54.9998 31.1266C54.9998 31.4343 55.0663 31.704 55.1993 31.9357C55.3322 32.1675 55.5108 32.3669 55.7349 32.5341C55.9628 32.6974 56.2136 32.838 56.4871 32.9557C56.7644 33.0735 57.0436 33.1723 57.3248 33.2521L58.5556 33.6054C58.9279 33.7079 59.3002 33.839 59.6725 33.9985C60.0448 34.1581 60.3848 34.3594 60.6925 34.6026C61.004 34.8419 61.2528 35.1363 61.4389 35.4858C61.6289 35.8315 61.7239 36.2475 61.7239 36.7337C61.7239 37.3568 61.5624 37.9171 61.2395 38.4147C60.9166 38.9124 60.4531 39.3075 59.8491 39.6C59.2451 39.8887 58.5214 40.0331 57.678 40.0331C56.8841 40.0331 56.1946 39.902 55.6096 39.6399C55.0245 39.374 54.5649 39.0074 54.2306 38.5401C53.8963 38.0728 53.7082 37.5315 53.6664 36.9161H54.7605C54.7985 37.3757 54.9504 37.7651 55.2164 38.0842C55.4823 38.4033 55.828 38.6465 56.2535 38.8136C56.6789 38.977 57.1538 39.0587 57.678 39.0587C58.2593 39.0587 58.7759 38.9618 59.228 38.768C59.6839 38.5705 60.041 38.297 60.2993 37.9475C60.5614 37.5942 60.6925 37.1839 60.6925 36.7166C60.6925 36.3216 60.5899 35.9911 60.3848 35.7251C60.1796 35.4554 59.8928 35.2294 59.5243 35.047C59.1596 34.8647 58.736 34.7032 58.2536 34.5627L56.8575 34.1524C55.942 33.8789 55.2316 33.5009 54.7263 33.0184C54.2211 32.536 53.9684 31.9205 53.9684 31.1722C53.9684 30.5453 54.1356 29.9945 54.4699 29.5196C54.808 29.041 55.2639 28.6687 55.8375 28.4028C56.4149 28.133 57.0626 27.9982 57.7806 27.9982C58.5062 27.9982 59.1482 28.1311 59.7067 28.3971C60.2651 28.663 60.7077 29.0296 61.0344 29.4969C61.3649 29.9603 61.5415 30.4884 61.5643 31.081H60.5329Z" fill="white"/>
<path d="M67.0434 31.081V31.9642H62.8665V31.081H67.0434ZM64.1714 28.984H65.1914V37.5486C65.1914 37.9133 65.2541 38.2001 65.3795 38.409C65.5048 38.6142 65.6682 38.7604 65.8695 38.8478C66.0709 38.9314 66.2855 38.9732 66.5134 38.9732C66.6464 38.9732 66.7604 38.9656 66.8553 38.9504C66.9503 38.9314 67.0339 38.9124 67.1061 38.8934L67.3226 39.8108C67.2238 39.8488 67.1023 39.883 66.9579 39.9134C66.8135 39.9476 66.635 39.9647 66.4223 39.9647C66.05 39.9647 65.691 39.883 65.3453 39.7197C65.0034 39.5563 64.7223 39.3132 64.5019 38.9903C64.2816 38.6674 64.1714 38.2666 64.1714 37.7879V28.984Z" fill="white"/>
<path d="M74.4271 36.4887V31.081H75.4414V39.8336H74.4271V38.3806H74.3473C74.1422 38.8288 73.8174 39.203 73.3729 39.5031C72.9285 39.7994 72.3852 39.9476 71.7432 39.9476C71.1848 39.9476 70.689 39.826 70.2559 39.5829C69.8229 39.336 69.4829 38.9751 69.2359 38.5002C68.989 38.0254 68.8655 37.4422 68.8655 36.7508V31.081H69.8798V36.6881C69.8798 37.3719 70.0812 37.9228 70.4839 38.3407C70.8865 38.7547 71.4032 38.9618 72.0338 38.9618C72.4289 38.9618 72.8088 38.8668 73.1735 38.6769C73.5382 38.4869 73.8383 38.2096 74.0738 37.8449C74.3093 37.4764 74.4271 37.0243 74.4271 36.4887Z" fill="white"/>
<path d="M80.7965 40.016C80.0785 40.016 79.4498 39.826 78.9104 39.4461C78.3709 39.0663 77.9493 38.5363 77.6454 37.8563C77.3452 37.1763 77.1952 36.3842 77.1952 35.4801C77.1952 34.5798 77.3452 33.7915 77.6454 33.1153C77.9493 32.4353 78.3728 31.9072 78.9161 31.5312C79.4593 31.1513 80.0918 30.9613 80.8136 30.9613C81.3455 30.9613 81.788 31.0563 82.1413 31.2462C82.4946 31.4324 82.7777 31.6641 82.9904 31.9414C83.2031 32.2188 83.3684 32.4885 83.4862 32.7506H83.5773V28.1634H84.5973V39.8336H83.6058V38.2096H83.4862C83.3684 38.4755 83.2012 38.749 82.9847 39.0302C82.7682 39.3075 82.4813 39.5411 82.1242 39.7311C81.771 39.921 81.3284 40.016 80.7965 40.016ZM80.9162 39.0871C81.4822 39.0871 81.9647 38.9333 82.3636 38.6256C82.7625 38.3141 83.0664 37.8867 83.2753 37.3435C83.4881 36.7964 83.5944 36.1696 83.5944 35.463C83.5944 34.764 83.49 34.1467 83.281 33.611C83.0721 33.0716 82.7682 32.6499 82.3693 32.346C81.9704 32.0383 81.486 31.8845 80.9162 31.8845C80.3312 31.8845 79.8373 32.044 79.4346 32.3631C79.0358 32.6784 78.7318 33.1058 78.5229 33.6452C78.3178 34.1847 78.2152 34.7906 78.2152 35.463C78.2152 36.143 78.3197 36.7565 78.5286 37.3036C78.7375 37.8506 79.0415 38.2856 79.4403 38.6085C79.843 38.9276 80.335 39.0871 80.9162 39.0871Z" fill="white"/>
<path d="M90.5436 40.016C89.7269 40.016 89.0203 39.826 88.4239 39.4461C87.8274 39.0625 87.3659 38.5325 87.0392 37.8563C86.7163 37.1763 86.5548 36.3937 86.5548 35.5086C86.5548 34.6273 86.7163 33.8447 87.0392 33.1609C87.3659 32.4733 87.816 31.9357 88.3897 31.5483C88.9671 31.157 89.6338 30.9613 90.3898 30.9613C90.8647 30.9613 91.3224 31.0487 91.7631 31.2234C92.2038 31.3944 92.5988 31.6584 92.9483 32.0155C93.3016 32.3688 93.5809 32.8152 93.786 33.3546C93.9911 33.8903 94.0937 34.5247 94.0937 35.2579V35.7593H87.2557V34.8647H93.0566C93.0566 34.3024 92.9426 33.7972 92.7147 33.3489C92.4906 32.8969 92.1772 32.5398 91.7745 32.2776C91.3756 32.0155 90.914 31.8845 90.3898 31.8845C89.8352 31.8845 89.347 32.0326 88.9253 32.3289C88.5036 32.6252 88.1731 33.0165 87.9338 33.5028C87.6983 33.989 87.5786 34.5209 87.5748 35.0983V35.634C87.5748 36.3292 87.6945 36.937 87.9338 37.4574C88.1769 37.9741 88.5207 38.3749 88.9652 38.6598C89.4097 38.9447 89.9358 39.0871 90.5436 39.0871C90.9577 39.0871 91.3205 39.0226 91.632 38.8934C91.9473 38.7642 92.2114 38.5914 92.4241 38.3749C92.6406 38.1545 92.804 37.9133 92.9142 37.6512L93.8772 37.9646C93.7442 38.3331 93.5258 38.6731 93.2219 38.9846C92.9218 39.2961 92.5457 39.5468 92.0936 39.7368C91.6453 39.9229 91.1287 40.016 90.5436 40.016Z" fill="white"/>
<path d="M96.8618 34.3632V39.8336H95.8475V31.081H96.8333V32.4543H96.9245C97.1296 32.006 97.4487 31.647 97.8818 31.3773C98.3187 31.1038 98.8581 30.967 99.5001 30.967C100.089 30.967 100.606 31.0905 101.05 31.3374C101.498 31.5805 101.846 31.9395 102.093 32.4144C102.344 32.8893 102.469 33.4724 102.469 34.1638V39.8336H101.455V34.2265C101.455 33.5085 101.253 32.9405 100.851 32.5227C100.452 32.1048 99.9161 31.8958 99.2437 31.8958C98.784 31.8958 98.3756 31.9946 98.0186 32.1922C97.6615 32.3897 97.3784 32.6746 97.1695 33.0469C96.9644 33.4154 96.8618 33.8542 96.8618 34.3632Z" fill="white"/>
<path d="M108.106 31.081V31.9642H103.929V31.081H108.106ZM105.234 28.984H106.254V37.5486C106.254 37.9133 106.317 38.2001 106.442 38.409C106.568 38.6142 106.731 38.7604 106.932 38.8478C107.134 38.9314 107.348 38.9732 107.576 38.9732C107.709 38.9732 107.823 38.9656 107.918 38.9504C108.013 38.9314 108.097 38.9124 108.169 38.8934L108.385 39.8108C108.287 39.8488 108.165 39.883 108.021 39.9134C107.876 39.9476 107.698 39.9647 107.485 39.9647C107.113 39.9647 106.754 39.883 106.408 39.7197C106.066 39.5563 105.785 39.3132 105.565 38.9903C105.344 38.6674 105.234 38.2666 105.234 37.7879V28.984Z" fill="white"/>
<path d="M114.171 39.8336V28.1634H118.108C118.868 28.1634 119.501 28.2964 120.006 28.5623C120.515 28.8282 120.897 29.191 121.151 29.6507C121.406 30.1104 121.533 30.6327 121.533 31.2177C121.533 31.704 121.451 32.12 121.288 32.4657C121.125 32.8114 120.902 33.0906 120.621 33.3033C120.34 33.5161 120.027 33.6699 119.681 33.7649V33.8561C120.057 33.8827 120.422 34.0156 120.775 34.255C121.128 34.4905 121.419 34.821 121.647 35.2465C121.875 35.6719 121.989 36.181 121.989 36.7736C121.989 37.3625 121.858 37.8886 121.596 38.3521C121.334 38.8117 120.931 39.1745 120.388 39.4404C119.848 39.7026 119.161 39.8336 118.325 39.8336H114.171ZM115.236 38.8763H118.325C119.225 38.8763 119.89 38.6769 120.319 38.278C120.752 37.8791 120.969 37.3776 120.969 36.7736C120.969 36.3292 120.861 35.9265 120.644 35.5656C120.431 35.2009 120.129 34.9122 119.738 34.6994C119.351 34.4867 118.895 34.3803 118.37 34.3803H115.236V38.8763ZM115.236 33.4344H118.205C118.665 33.4344 119.068 33.3394 119.413 33.1495C119.759 32.9595 120.029 32.6974 120.222 32.3631C120.416 32.0288 120.513 31.647 120.513 31.2177C120.513 30.5985 120.312 30.0952 119.909 29.7077C119.506 29.3164 118.906 29.1208 118.108 29.1208H115.236V33.4344Z" fill="white"/>
<path d="M123.868 39.8336V31.081H124.854V32.4258H124.928C125.103 31.9851 125.407 31.6299 125.84 31.3602C126.277 31.0867 126.77 30.9499 127.321 30.9499C127.405 30.9499 127.498 30.9518 127.6 30.9556C127.703 30.9594 127.789 30.9632 127.857 30.967V31.9984C127.811 31.9908 127.732 31.9794 127.618 31.9642C127.504 31.949 127.38 31.9414 127.247 31.9414C126.791 31.9414 126.385 32.0383 126.028 32.232C125.674 32.422 125.395 32.686 125.19 33.0241C124.985 33.3622 124.882 33.7478 124.882 34.1809V39.8336H123.868Z" fill="white"/>
<path d="M131.551 40.0331C131.023 40.0331 130.54 39.9305 130.104 39.7254C129.667 39.5164 129.319 39.2163 129.061 38.825C128.802 38.4299 128.673 37.9513 128.673 37.389C128.673 36.956 128.755 36.5913 128.918 36.295C129.082 35.9986 129.313 35.7555 129.614 35.5656C129.914 35.3756 130.269 35.2256 130.679 35.1154C131.089 35.0052 131.541 34.9198 132.035 34.859C132.525 34.7982 132.939 34.745 133.278 34.6994C133.619 34.6538 133.88 34.5817 134.058 34.4829C134.237 34.3841 134.326 34.2246 134.326 34.0042V33.7991C134.326 33.2027 134.148 32.7335 133.79 32.3916C133.437 32.0459 132.928 31.8731 132.263 31.8731C131.633 31.8731 131.118 32.0117 130.719 32.289C130.324 32.5664 130.047 32.8931 129.887 33.2691L128.924 32.9216C129.122 32.4429 129.395 32.0611 129.745 31.7762C130.094 31.4875 130.485 31.2804 130.918 31.1551C131.352 31.0259 131.79 30.9613 132.235 30.9613C132.569 30.9613 132.917 31.005 133.278 31.0924C133.642 31.1798 133.98 31.3317 134.292 31.5483C134.603 31.761 134.856 32.0592 135.05 32.4429C135.243 32.8228 135.34 33.3052 135.34 33.8903V39.8336H134.326V38.4489H134.263C134.142 38.7073 133.961 38.958 133.722 39.2011C133.483 39.4442 133.183 39.6437 132.822 39.7994C132.461 39.9552 132.037 40.0331 131.551 40.0331ZM131.688 39.1042C132.227 39.1042 132.694 38.9846 133.09 38.7452C133.485 38.5059 133.789 38.1887 134.001 37.7936C134.218 37.3947 134.326 36.956 134.326 36.4773V35.2123C134.25 35.2845 134.123 35.349 133.944 35.406C133.77 35.463 133.566 35.5143 133.335 35.5599C133.107 35.6017 132.879 35.6378 132.651 35.6681C132.423 35.6985 132.218 35.7251 132.035 35.7479C131.541 35.8087 131.12 35.9037 130.77 36.0328C130.421 36.162 130.153 36.3406 129.967 36.5685C129.781 36.7926 129.688 37.0813 129.688 37.4346C129.688 37.9665 129.878 38.3787 130.257 38.6712C130.637 38.9599 131.114 39.1042 131.688 39.1042Z" fill="white"/>
<path d="M138.571 34.3632V39.8336H137.557V31.081H138.543V32.4543H138.634C138.839 32.006 139.158 31.647 139.591 31.3773C140.028 31.1038 140.568 30.967 141.21 30.967C141.799 30.967 142.315 31.0905 142.76 31.3374C143.208 31.5805 143.556 31.9395 143.803 32.4144C144.053 32.8893 144.179 33.4724 144.179 34.1638V39.8336H143.164V34.2265C143.164 33.5085 142.963 32.9405 142.56 32.5227C142.161 32.1048 141.626 31.8958 140.953 31.8958C140.494 31.8958 140.085 31.9946 139.728 32.1922C139.371 32.3897 139.088 32.6746 138.879 33.0469C138.674 33.4154 138.571 33.8542 138.571 34.3632Z" fill="white"/>
<path d="M149.787 40.016C149.005 40.016 148.323 39.8203 147.742 39.4291C147.164 39.0378 146.716 38.5021 146.397 37.8221C146.078 37.1421 145.918 36.3671 145.918 35.4972C145.918 34.6197 146.08 33.839 146.402 33.1552C146.729 32.4714 147.181 31.9357 147.759 31.5483C148.336 31.157 149.007 30.9613 149.77 30.9613C150.355 30.9613 150.885 31.0753 151.36 31.3032C151.835 31.5274 152.226 31.8446 152.534 32.2548C152.845 32.6613 153.041 33.1362 153.121 33.6794H152.095C151.989 33.1856 151.732 32.7639 151.326 32.4144C150.923 32.0611 150.41 31.8845 149.787 31.8845C149.229 31.8845 148.735 32.0364 148.306 32.3403C147.876 32.6404 147.54 33.0602 147.297 33.5997C147.058 34.1353 146.938 34.7564 146.938 35.463C146.938 36.1734 147.056 36.8021 147.291 37.3492C147.527 37.8924 147.857 38.3179 148.283 38.6256C148.712 38.9333 149.214 39.0871 149.787 39.0871C150.175 39.0871 150.528 39.015 150.847 38.8706C151.17 38.7225 151.44 38.5135 151.656 38.2438C151.877 37.9741 152.025 37.6531 152.101 37.2808H153.127C153.051 37.8088 152.863 38.2799 152.562 38.694C152.266 39.1042 151.88 39.4271 151.406 39.6627C150.935 39.8982 150.395 40.016 149.787 40.016Z" fill="white"/>
<path d="M155.833 34.3632V39.8336H154.819V28.1634H155.833V32.4543H155.925C156.13 32.0022 156.447 31.6413 156.876 31.3716C157.309 31.1019 157.856 30.967 158.517 30.967C159.11 30.967 159.63 31.0886 160.079 31.3317C160.527 31.5748 160.876 31.9338 161.127 32.4087C161.378 32.8836 161.503 33.4686 161.503 34.1638V39.8336H160.483V34.2265C160.483 33.5047 160.282 32.9367 159.879 32.5227C159.48 32.1048 158.941 31.8958 158.261 31.8958C157.794 31.8958 157.378 31.9946 157.013 32.1922C156.648 32.3897 156.359 32.6746 156.147 33.0469C155.938 33.4154 155.833 33.8542 155.833 34.3632Z" fill="white"/>
<path d="M205.93 0.0165405H181.86L205.93 23.4177V0.0165405Z" fill="#EA8913"/>
<path d="M217.965 23.4177V0.0165405H207.267V13.0172L217.965 23.4177Z" fill="white"/>
<path d="M230 23.4177V0.0165405H219.302V13.0172L230 23.4177Z" fill="#0A5616"/>
</svg>
