<svg width="38" height="37" viewBox="0 0 38 37" fill="none" xmlns="http://www.w3.org/2000/svg">
<path d="M18.7235 0.343872C29.0682 0.343872 37.447 8.67423 37.447 18.9592C37.446 22.8596 36.2147 26.6615 33.9266 29.8297C31.6384 32.9979 28.4085 35.373 24.6916 36.6205C23.7554 36.8067 23.4043 36.2249 23.4043 35.7363C23.4043 35.108 23.4278 33.1069 23.4278 30.6171C23.4278 28.8719 22.8426 27.755 22.1639 27.1732C26.3299 26.7078 30.7065 25.1255 30.7065 17.9819C30.7065 15.9342 29.981 14.2821 28.7873 12.979C28.9746 12.5136 29.6299 10.6056 28.6001 8.04597C28.6001 8.04597 27.032 7.53405 23.4512 9.95404C21.9533 9.53519 20.3618 9.32577 18.7703 9.32577C17.1788 9.32577 15.5873 9.53519 14.0894 9.95404C10.5086 7.55731 8.94046 8.04597 8.94046 8.04597C7.91067 10.6056 8.56599 12.5136 8.75323 12.979C7.55961 14.2821 6.83407 15.9575 6.83407 17.9819C6.83407 25.1023 11.1873 26.7078 15.3533 27.1732C14.815 27.6386 14.3235 28.453 14.1596 29.663C13.083 30.1517 10.3915 30.9428 8.70642 28.1273C8.35535 27.5688 7.30216 26.1959 5.82768 26.2192C4.25959 26.2425 5.19577 27.1034 5.85109 27.4525C6.64684 27.8946 7.55961 29.5467 7.77025 30.0819C8.14471 31.129 9.36174 33.1301 14.066 32.2692C14.066 33.8282 14.0894 35.2942 14.0894 35.7363C14.0894 36.2249 13.7384 36.7834 12.8022 36.6205C9.07302 35.3864 5.8294 33.0162 3.53146 29.846C1.23352 26.6759 -0.0020607 22.8668 2.57989e-06 18.9592C2.57989e-06 8.67423 8.37876 0.343872 18.7235 0.343872Z" fill="#727477"/>
</svg>
