<svg width="38" height="38" viewBox="0 0 38 38" fill="none" xmlns="http://www.w3.org/2000/svg">
<path d="M18.7252 0C13.6402 0 13.002 0.0222345 11.0048 0.113121C9.01155 0.204398 7.65096 0.519967 6.46045 0.982983C5.22898 1.46121 4.18435 2.10093 3.14363 3.14203C2.10212 4.18275 1.4624 5.22736 0.982602 6.45843C0.518411 7.64932 0.20245 9.01028 0.112732 11.0028C0.0234044 12.9999 0 13.6385 0 18.7235C0 23.8085 0.0226248 24.4447 0.113123 26.4418C0.204791 28.4351 0.520362 29.7957 0.982993 30.9862C1.46162 32.2176 2.10134 33.2623 3.14246 34.303C4.18279 35.3445 5.22742 35.9857 6.45811 36.464C7.6494 36.927 9.01038 37.2426 11.0033 37.3338C13.0005 37.4247 13.6382 37.447 18.7229 37.447C23.8083 37.447 24.4445 37.4247 26.4417 37.3338C28.435 37.2426 29.7972 36.927 30.9885 36.464C32.2195 35.9857 33.2626 35.3445 34.3029 34.303C35.3444 33.2623 35.9842 32.2176 36.464 30.9866C36.9243 29.7957 37.2402 28.4347 37.3338 26.4422C37.4235 24.4451 37.447 23.8085 37.447 18.7235C37.447 13.6385 37.4235 13.0003 37.3338 11.0032C37.2402 9.00989 36.9243 7.64932 36.464 6.45882C35.9842 5.22736 35.3444 4.18275 34.3029 3.14203C33.2614 2.10054 32.2199 1.46082 30.9873 0.982983C29.7937 0.519967 28.4323 0.204398 26.439 0.113121C24.4418 0.0222345 23.806 0 18.7194 0H18.7252ZM17.0456 3.37413C17.5441 3.37335 18.1003 3.37413 18.7252 3.37413C23.7245 3.37413 24.317 3.39207 26.2912 3.48179C28.1167 3.56526 29.1075 3.8703 29.7675 4.12658C30.6413 4.46594 31.2642 4.87161 31.9192 5.52694C32.5745 6.18226 32.9802 6.80637 33.3203 7.68014C33.5766 8.33936 33.882 9.33014 33.9651 11.1557C34.0548 13.1294 34.0744 13.7224 34.0744 18.7192C34.0744 23.716 34.0548 24.3089 33.9651 26.2827C33.8817 28.1082 33.5766 29.099 33.3203 29.7582C32.981 30.632 32.5745 31.2542 31.9192 31.9091C31.2639 32.5644 30.6417 32.9701 29.7675 33.3095C29.1083 33.5669 28.1167 33.8712 26.2912 33.9546C24.3174 34.0444 23.7245 34.0639 18.7252 34.0639C13.7256 34.0639 13.1331 34.0444 11.1593 33.9546C9.33375 33.8704 8.34296 33.5653 7.68256 33.3091C6.80878 32.9697 6.18466 32.564 5.52933 31.9087C4.87401 31.2534 4.46833 30.6308 4.12818 29.7567C3.8719 29.0975 3.56647 28.1067 3.48338 26.2811C3.39367 24.3074 3.37572 23.7145 3.37572 18.7145C3.37572 13.7146 3.39367 13.1248 3.48338 11.151C3.56686 9.32546 3.8719 8.33468 4.12818 7.67467C4.46755 6.80091 4.87401 6.1768 5.52933 5.52147C6.18466 4.86615 6.80878 4.46048 7.68256 4.12034C8.34257 3.86289 9.33375 3.55863 11.1593 3.47477C12.8866 3.39675 13.5559 3.37335 17.0456 3.36945V3.37413ZM28.7198 6.483C27.4793 6.483 26.4729 7.48822 26.4729 8.72904C26.4729 9.96947 27.4793 10.9759 28.7198 10.9759C29.9602 10.9759 30.9666 9.96947 30.9666 8.72904C30.9666 7.48861 29.9602 6.483 28.7198 6.483ZM18.7252 9.10819C13.4151 9.10819 9.10985 13.4134 9.10985 18.7235C9.10985 24.0335 13.4151 28.3368 18.7252 28.3368C24.0353 28.3368 28.3391 24.0335 28.3391 18.7235C28.3391 13.4134 24.0353 9.10819 18.7252 9.10819ZM18.7252 12.4823C22.1719 12.4823 24.9665 15.2764 24.9665 18.7235C24.9665 22.1702 22.1719 24.9646 18.7252 24.9646C15.2781 24.9646 12.484 22.1702 12.484 18.7235C12.484 15.2764 15.2781 12.4823 18.7252 12.4823Z" fill="#727477"/>
</svg>
