<svg width="39" height="40" viewBox="0 0 39 40" fill="none" xmlns="http://www.w3.org/2000/svg">
<path fill-rule="evenodd" clip-rule="evenodd" d="M7.64833 6.03137C6.56539 6.03137 5.6875 6.90926 5.6875 7.9922V31.6955C5.6875 32.7784 6.56539 33.6563 7.64833 33.6563H31.3517C32.4346 33.6563 33.3125 32.7784 33.3125 31.6955V7.9922C33.3125 6.90927 32.4346 6.03137 31.3517 6.03137H7.64833ZM11.888 14.6103C13.2116 14.6103 14.2845 13.5374 14.2845 12.2139C14.2845 10.8903 13.2116 9.8174 11.888 9.8174C10.5645 9.8174 9.49158 10.8903 9.49158 12.2139C9.49158 13.5374 10.5645 14.6103 11.888 14.6103ZM16.4793 16.3814H20.451V18.2008C20.451 18.2008 21.5287 16.0453 24.4612 16.0453C27.0771 16.0453 29.2441 17.3339 29.2441 21.2619V29.5447H25.1283V22.2655C25.1283 19.9484 23.8912 19.6936 22.9486 19.6936C20.9923 19.6936 20.6574 21.381 20.6574 22.5678V29.5447H16.4793V16.3814ZM13.9771 16.3814H9.79899V29.5447H13.9771V16.3814Z" fill="#727477"/>
</svg>
